<svg width="32" height="32" viewBox="0 0 96 96" fill="none" xmlns="http://www.w3.org/2000/svg">
  <rect width="96" height="96" rx="16" fill="#0d0d0d"/>
  <path d="M18 72 L28 50 L38 72" fill="#fff" opacity="0.9"/>
  <path d="M28 50 L38 72 L38 75 L28 53 Z" fill="#fff" opacity="0.7"/>
  <path d="M18 72 L28 50 L38 72" stroke="#fff" stroke-width="1.5" fill="none" stroke-linecap="round" stroke-linejoin="round" opacity="0.6"/>
  <rect x="24" y="58" width="8" height="8" rx="1" fill="rgba(0,0,0,0.2)"/>
  <line x1="28" y1="58" x2="28" y2="66" stroke="#fff" stroke-width="0.8" opacity="0.5"/>
  <line x1="24" y1="62" x2="32" y2="62" stroke="#fff" stroke-width="0.8" opacity="0.5"/>
  <line x1="30" y1="54" x2="34" y2="64" stroke="#fff" stroke-width="1.2" opacity="0.35"/>
  <line x1="33" y1="54" x2="37" y2="64" stroke="#fff" stroke-width="1.2" opacity="0.25"/>
  <path d="M38 72 L48 30 L58 72" fill="#fff"/>
  <path d="M48 30 L58 72 L58 75 L48 33 Z" fill="#fff" opacity="0.75"/>
  <path d="M48 30 L38 72 L38 75 L48 33 Z" fill="#fff" opacity="0.85"/>
  <path d="M38 72 L48 30 L58 72" stroke="#fff" stroke-width="1.8" fill="none" stroke-linecap="round" stroke-linejoin="round" opacity="0.6"/>
  <rect x="43" y="50" width="10" height="10" rx="1.5" fill="rgba(0,0,0,0.2)"/>
  <line x1="48" y1="50" x2="48" y2="60" stroke="#fff" stroke-width="1" opacity="0.5"/>
  <line x1="43" y1="55" x2="53" y2="55" stroke="#fff" stroke-width="1" opacity="0.5"/>
  <path d="M58 72 L68 50 L78 72" fill="#fff" opacity="0.9"/>
  <path d="M68 50 L58 72 L58 75 L68 53 Z" fill="#fff" opacity="0.7"/>
  <path d="M58 72 L68 50 L78 72" stroke="#fff" stroke-width="1.5" fill="none" stroke-linecap="round" stroke-linejoin="round" opacity="0.6"/>
  <rect x="64" y="58" width="8" height="8" rx="1" fill="rgba(0,0,0,0.2)"/>
  <line x1="68" y1="58" x2="68" y2="66" stroke="#fff" stroke-width="0.8" opacity="0.5"/>
  <line x1="64" y1="62" x2="72" y2="62" stroke="#fff" stroke-width="0.8" opacity="0.5"/>
  <line x1="66" y1="54" x2="62" y2="64" stroke="#fff" stroke-width="1.2" opacity="0.35"/>
  <line x1="63" y1="54" x2="59" y2="64" stroke="#fff" stroke-width="1.2" opacity="0.25"/>
  <line x1="14" y1="74" x2="82" y2="74" stroke="#fff" stroke-width="2" stroke-linecap="round" opacity="0.4"/>
</svg>
